<mxfile host="app.diagrams.net" modified="2023-03-26T23:28:14.094Z" agent="Mozilla/5.0 (Windows NT 10.0; Win64; x64) AppleWebKit/537.36 (KHTML, like Gecko) Chrome/111.0.0.0 Safari/537.36" etag="5idQbvnMOKr3doSXgaky" version="21.1.1" type="google">
  <diagram name="Página-1" id="9gbIt9CUv7wsZ5Mxuj_C">
    <mxGraphModel grid="1" page="1" gridSize="10" guides="1" tooltips="1" connect="1" arrows="1" fold="1" pageScale="1" pageWidth="827" pageHeight="1169" math="0" shadow="0">
      <root>
        <mxCell id="0" />
        <mxCell id="1" parent="0" />
        <mxCell id="MWO6_nfsMnDqsx2PqNDh-1" value="ARQLAB1" style="shape=umlFrame;whiteSpace=wrap;html=1;pointerEvents=0;" vertex="1" parent="1">
          <mxGeometry x="90" y="60" width="670" height="400" as="geometry" />
        </mxCell>
        <mxCell id="MWO6_nfsMnDqsx2PqNDh-2" value="" style="rounded=0;whiteSpace=wrap;html=1;" vertex="1" parent="1">
          <mxGeometry x="100" y="100" width="650" height="350" as="geometry" />
        </mxCell>
        <mxCell id="MWO6_nfsMnDqsx2PqNDh-4" value="Base de datos sample Apache Derby" style="shape=datastore;whiteSpace=wrap;html=1;" vertex="1" parent="1">
          <mxGeometry x="562.62" y="384.72" width="140.52" height="62.28" as="geometry" />
        </mxCell>
        <mxCell id="MWO6_nfsMnDqsx2PqNDh-5" value="" style="rounded=0;whiteSpace=wrap;html=1;" vertex="1" parent="1">
          <mxGeometry x="110" y="110" width="310" height="260" as="geometry" />
        </mxCell>
        <mxCell id="MWO6_nfsMnDqsx2PqNDh-6" value="" style="rounded=0;whiteSpace=wrap;html=1;" vertex="1" parent="1">
          <mxGeometry x="430" y="110" width="280" height="260" as="geometry" />
        </mxCell>
        <mxCell id="MWO6_nfsMnDqsx2PqNDh-46" style="edgeStyle=orthogonalEdgeStyle;rounded=0;orthogonalLoop=1;jettySize=auto;html=1;endArrow=none;endFill=0;" edge="1" parent="1" source="MWO6_nfsMnDqsx2PqNDh-10" target="MWO6_nfsMnDqsx2PqNDh-9">
          <mxGeometry relative="1" as="geometry">
            <Array as="points">
              <mxPoint x="410" y="250" />
              <mxPoint x="410" y="250" />
            </Array>
          </mxGeometry>
        </mxCell>
        <mxCell id="MWO6_nfsMnDqsx2PqNDh-10" value="" style="rounded=0;whiteSpace=wrap;html=1;" vertex="1" parent="1">
          <mxGeometry x="440" y="140" width="120" height="220" as="geometry" />
        </mxCell>
        <mxCell id="MWO6_nfsMnDqsx2PqNDh-11" value="" style="rounded=0;whiteSpace=wrap;html=1;" vertex="1" parent="1">
          <mxGeometry x="570" y="140" width="130" height="220" as="geometry" />
        </mxCell>
        <mxCell id="MWO6_nfsMnDqsx2PqNDh-19" value="modulo Web (WAR)" style="text;html=1;strokeColor=none;fillColor=none;align=center;verticalAlign=middle;whiteSpace=wrap;rounded=0;" vertex="1" parent="1">
          <mxGeometry x="210" y="110" width="130" height="30" as="geometry" />
        </mxCell>
        <mxCell id="MWO6_nfsMnDqsx2PqNDh-9" value="" style="rounded=0;whiteSpace=wrap;html=1;" vertex="1" parent="1">
          <mxGeometry x="290" y="143" width="119" height="190" as="geometry" />
        </mxCell>
        <mxCell id="MWO6_nfsMnDqsx2PqNDh-14" value="Controller&lt;br&gt;&lt;br&gt;&amp;lt;&amp;lt;JSF Manager Bean&amp;gt;&amp;gt;&lt;br&gt;" style="text;html=1;strokeColor=none;fillColor=none;align=center;verticalAlign=middle;whiteSpace=wrap;rounded=0;" vertex="1" parent="1">
          <mxGeometry x="300" y="146" width="106" height="58" as="geometry" />
        </mxCell>
        <mxCell id="MWO6_nfsMnDqsx2PqNDh-15" value="&lt;u&gt;CeremoniasMBean&lt;/u&gt;" style="rounded=0;whiteSpace=wrap;html=1;fillColor=#fff2cc;strokeColor=#d6b656;gradientColor=#ebbb0f;gradientDirection=north;" vertex="1" parent="1">
          <mxGeometry x="300" y="213" width="104" height="40" as="geometry" />
        </mxCell>
        <mxCell id="MWO6_nfsMnDqsx2PqNDh-16" value="&lt;u&gt;Faces-Config.xml&lt;/u&gt;" style="rounded=0;whiteSpace=wrap;html=1;fillColor=#fff2cc;strokeColor=#d6b656;gradientColor=#ebbb0f;gradientDirection=north;" vertex="1" parent="1">
          <mxGeometry x="300" y="278" width="104.5" height="40" as="geometry" />
        </mxCell>
        <mxCell id="MWO6_nfsMnDqsx2PqNDh-41" style="edgeStyle=orthogonalEdgeStyle;rounded=0;orthogonalLoop=1;jettySize=auto;html=1;dashed=1;exitX=0;exitY=0.25;exitDx=0;exitDy=0;" edge="1" parent="1" source="MWO6_nfsMnDqsx2PqNDh-20" target="MWO6_nfsMnDqsx2PqNDh-15">
          <mxGeometry relative="1" as="geometry" />
        </mxCell>
        <mxCell id="MWO6_nfsMnDqsx2PqNDh-20" value="" style="rounded=0;whiteSpace=wrap;html=1;fillColor=#fff2cc;strokeColor=#d6b656;gradientColor=#ebbb0f;gradientDirection=north;" vertex="1" parent="1">
          <mxGeometry x="448.75" y="210" width="102.5" height="80" as="geometry" />
        </mxCell>
        <mxCell id="MWO6_nfsMnDqsx2PqNDh-22" value="lógica de la aplicación&lt;br&gt;&lt;br&gt;&amp;lt;&amp;lt;EJB&amp;gt;&amp;gt;" style="text;html=1;strokeColor=none;fillColor=none;align=center;verticalAlign=middle;whiteSpace=wrap;rounded=0;" vertex="1" parent="1">
          <mxGeometry x="453.25" y="148" width="93.5" height="58" as="geometry" />
        </mxCell>
        <mxCell id="MWO6_nfsMnDqsx2PqNDh-23" value="modulo EJB (JAR)" style="text;html=1;strokeColor=none;fillColor=none;align=center;verticalAlign=middle;whiteSpace=wrap;rounded=0;" vertex="1" parent="1">
          <mxGeometry x="500" y="110" width="130" height="30" as="geometry" />
        </mxCell>
        <mxCell id="MWO6_nfsMnDqsx2PqNDh-24" value="Modelo del Negocio&lt;br&gt;&amp;lt;&amp;lt;JPA&amp;gt;&amp;gt;" style="text;html=1;strokeColor=none;fillColor=none;align=center;verticalAlign=middle;whiteSpace=wrap;rounded=0;" vertex="1" parent="1">
          <mxGeometry x="570" y="143" width="130" height="47" as="geometry" />
        </mxCell>
        <mxCell id="MWO6_nfsMnDqsx2PqNDh-25" value="&amp;lt;&amp;lt;Stateless Session Beans&amp;gt;&amp;gt;" style="text;html=1;strokeColor=none;fillColor=none;align=center;verticalAlign=middle;whiteSpace=wrap;rounded=0;" vertex="1" parent="1">
          <mxGeometry x="446" y="213" width="110" height="30" as="geometry" />
        </mxCell>
        <mxCell id="MWO6_nfsMnDqsx2PqNDh-28" value="&lt;u&gt;&lt;font style=&quot;font-size: 9px;&quot;&gt;CeremoniasManager&lt;/font&gt;&lt;/u&gt;" style="rounded=0;whiteSpace=wrap;html=1;fillColor=#fff2cc;strokeColor=#d6b656;gradientColor=#ebbb0f;gradientDirection=north;" vertex="1" parent="1">
          <mxGeometry x="457.25" y="253" width="86.75" height="27" as="geometry" />
        </mxCell>
        <mxCell id="MWO6_nfsMnDqsx2PqNDh-30" value="" style="rounded=0;whiteSpace=wrap;html=1;fillColor=#fff2cc;strokeColor=#d6b656;gradientColor=#ebbb0f;gradientDirection=north;" vertex="1" parent="1">
          <mxGeometry x="575.75" y="185" width="114.25" height="95" as="geometry" />
        </mxCell>
        <mxCell id="MWO6_nfsMnDqsx2PqNDh-31" value="&amp;lt;&amp;lt;Entity Beans&amp;gt;&amp;gt;" style="text;html=1;strokeColor=none;fillColor=none;align=center;verticalAlign=middle;whiteSpace=wrap;rounded=0;" vertex="1" parent="1">
          <mxGeometry x="580" y="198" width="110" height="30" as="geometry" />
        </mxCell>
        <mxCell id="MWO6_nfsMnDqsx2PqNDh-32" value="&lt;u&gt;CeremoniaGrados&lt;/u&gt;" style="rounded=0;whiteSpace=wrap;html=1;fillColor=#fff2cc;strokeColor=#d6b656;gradientColor=#ebbb0f;gradientDirection=north;" vertex="1" parent="1">
          <mxGeometry x="585" y="243" width="100" height="17" as="geometry" />
        </mxCell>
        <mxCell id="MWO6_nfsMnDqsx2PqNDh-47" style="edgeStyle=orthogonalEdgeStyle;rounded=0;orthogonalLoop=1;jettySize=auto;html=1;entryX=0;entryY=0.5;entryDx=0;entryDy=0;endArrow=none;endFill=0;" edge="1" parent="1" source="MWO6_nfsMnDqsx2PqNDh-8" target="MWO6_nfsMnDqsx2PqNDh-9">
          <mxGeometry relative="1" as="geometry" />
        </mxCell>
        <mxCell id="MWO6_nfsMnDqsx2PqNDh-8" value="" style="rounded=0;whiteSpace=wrap;html=1;" vertex="1" parent="1">
          <mxGeometry x="120" y="143" width="140" height="190" as="geometry" />
        </mxCell>
        <mxCell id="MWO6_nfsMnDqsx2PqNDh-12" value="Presentacion&lt;br&gt;&lt;br&gt;&amp;lt;&amp;lt;JSF&amp;gt;&amp;gt;&lt;br&gt;&lt;br&gt;CeremoniasList.xhtml&lt;br&gt;&lt;br&gt;ceremoniasDetails.xhtml&lt;br&gt;&lt;br&gt;createCeremonia.xhtml" style="text;html=1;strokeColor=none;fillColor=none;align=center;verticalAlign=middle;whiteSpace=wrap;rounded=0;" vertex="1" parent="1">
          <mxGeometry x="120" y="143" width="140" height="140" as="geometry" />
        </mxCell>
        <mxCell id="MWO6_nfsMnDqsx2PqNDh-13" value="&lt;u&gt;&amp;lt;&amp;lt;Library&amp;gt;&amp;gt;&lt;br&gt;PrimeFace&lt;/u&gt;" style="rounded=0;whiteSpace=wrap;html=1;fillColor=#fff2cc;strokeColor=#d6b656;gradientColor=#ebbb0f;gradientDirection=north;" vertex="1" parent="1">
          <mxGeometry x="135" y="283" width="105" height="40" as="geometry" />
        </mxCell>
        <mxCell id="MWO6_nfsMnDqsx2PqNDh-40" style="edgeStyle=orthogonalEdgeStyle;rounded=0;orthogonalLoop=1;jettySize=auto;html=1;dashed=1;" edge="1" parent="1" source="MWO6_nfsMnDqsx2PqNDh-38" target="MWO6_nfsMnDqsx2PqNDh-28">
          <mxGeometry relative="1" as="geometry" />
        </mxCell>
        <mxCell id="MWO6_nfsMnDqsx2PqNDh-44" value="&lt;font color=&quot;#990000&quot;&gt;Persistence context&lt;/font&gt;" style="edgeLabel;html=1;align=center;verticalAlign=middle;resizable=0;points=[];" connectable="0" vertex="1" parent="MWO6_nfsMnDqsx2PqNDh-40">
          <mxGeometry x="0.0775" y="2" relative="1" as="geometry">
            <mxPoint as="offset" />
          </mxGeometry>
        </mxCell>
        <mxCell id="MWO6_nfsMnDqsx2PqNDh-38" value="&lt;u&gt;&amp;lt;&amp;lt;Persistence Unit&amp;gt;&amp;gt;&lt;br&gt;Persistence.html&lt;/u&gt;" style="rounded=0;whiteSpace=wrap;html=1;fillColor=#fff2cc;strokeColor=#d6b656;gradientColor=#ebbb0f;gradientDirection=north;" vertex="1" parent="1">
          <mxGeometry x="575" y="293" width="115" height="47" as="geometry" />
        </mxCell>
        <mxCell id="MWO6_nfsMnDqsx2PqNDh-39" style="edgeStyle=orthogonalEdgeStyle;rounded=0;orthogonalLoop=1;jettySize=auto;html=1;dashed=1;endArrow=none;endFill=0;" edge="1" parent="1" source="MWO6_nfsMnDqsx2PqNDh-4" target="MWO6_nfsMnDqsx2PqNDh-38">
          <mxGeometry relative="1" as="geometry" />
        </mxCell>
        <mxCell id="MWO6_nfsMnDqsx2PqNDh-49" value="JNDI" style="text;html=1;strokeColor=none;fillColor=none;align=center;verticalAlign=middle;whiteSpace=wrap;rounded=0;fontColor=#0000FF;" vertex="1" parent="1">
          <mxGeometry x="510" y="380" width="60" height="30" as="geometry" />
        </mxCell>
        <mxCell id="MWO6_nfsMnDqsx2PqNDh-50" value="JDBC" style="text;html=1;strokeColor=none;fillColor=none;align=center;verticalAlign=middle;whiteSpace=wrap;rounded=0;fontColor=#0000FF;" vertex="1" parent="1">
          <mxGeometry x="693" y="380" width="60" height="30" as="geometry" />
        </mxCell>
      </root>
    </mxGraphModel>
  </diagram>
</mxfile>
